{"title":"Mission Impossible Ghost Protocol 2011 720p Bluray DTS x264 Silv","uid":8794020,"size":3799833136,"categoryP":"video","categoryS":"hd___movies","magnet":"?xt=urn:btih:accae37e591fb6b87cb046c4b8d11fde1ba455cf&amp;dn=Mission+Impossible+Ghost+Protocol+2011+720p+Bluray+DTS+x264+Silv&amp;tr=udp%3A%2F%2Ftracker.openbittorrent.com%3A80&amp;tr=udp%3A%2F%2Fopen.demonii.com%3A1337&amp;tr=udp%3A%2F%2Ftracker.coppersurfer.tk%3A6969&amp;tr=udp%3A%2F%2Fexodus.desync.com%3A6969","seeders":10,"leechers":8,"uploader":"AliBaloch","files":-1,"time":1376026516,"description":" &lt;a href=&quot;http://i874.photobucket.com/albums/ab306/worldwide7477/Custom%20Covers/Mission-Impossible-Ghost-Protocol-Custom-Movie-Cover-Worldwide7477_zpsb38421dc.png&quot; rel=&quot;nofollow&quot; target=&quot;_NEW&quot;&gt;http://i874.photobucket.com/albums/ab306/worldwide7477/Custom%20Covers/Mission-Impossible-Ghost-Protocol-Custom-Movie-Cover-Worldwide7477_zpsb38421dc.png&lt;/a&gt;\n\nGhost Protocol 720p Bluray DTS x264 SilverTorrentHDMission Impossible Ghost Protocol 720p Bluray DTS x264 SilverTorrentHD.mkv\nFormat                                   : Matroska\nFormat version                           : Version 4 / Version 2\nFile size                                : 3.49 GiB\nDuration                                 : 2h 12mn\nOverall bit rate                         : 3 755 Kbps\nMovie name                               : Mission Impossible Ghost Protocol  (Worldwide7477)\n\nVideo\nFormat/Info                              : Advanced Video Codec\nCodec ID                                 : V_MPEG4/ISO/AVC\nDuration                                 : 2h 12mn\nBit rate                                 : 2 999 Kbps\nWidth                                    : 1 280 pixels\nHeight                                   : 528 pixels\nDisplay aspect ratio                     : 2.40:1\nFrame rate mode                          : Constant\nFrame rate                               : 23.976 fps\nColor space                              : YUV\nChroma subsampling                       : 4:2:0\nBit depth                                : 8 bits\nBits/(Pixel*Frame)                       : 0.185\nStream size                              : 2.72 GiB (78%)\nTitle                                    : Worldwide7477\nLanguage                                 : English\nDefault                                  : Yes\nForced                                   : No\n\nAudio\nFormat                                   : DTS\nFormat/Info                              : Digital Theater Systems\nMode                                     : 16\nFormat settings, Endianness              : Big\nCodec ID                                 : A_DTS\nDuration                                 : 2h 12mn\nBit rate                                 : 755 Kbps\nChannel(s)                               : 6 channels\nChannel positions                        : Front: L C R, Side: L R, LFE\nSampling rate                            : 48.0 KHz\nBit depth                                : 24 bits\nStream size                              : 717 MiB (20%)\nTitle                                    : Worldwide7477 (DTS)\nLanguage                                 : English\nDefault                                  : Yes\nForced                                   : No\n\nText #1\nID                                       : 3\nFormat                                   : UTF-8\nCodec ID                                 : S_TEXT/UTF8\nCodec ID/Info                            : UTF-8 Plain Text\nTitle                                    : Worldwide7477\nLanguage                                 : English\nDefault                                  : Yes\nForced                                   : No\n\nText #2\nID                                       : 4\nFormat                                   : UTF-8\nCodec ID                                 : S_TEXT/UTF8\nCodec ID/Info                            : UTF-8 Plain Text\nTitle                                    : Worldwide7477 Non Engligh Parts\nLanguage                                 : English\nDefault                                  : No\nForced                                   : No\n &lt;a href=&quot;\nhttp://img29.imageshack.us/img29/4978/rapq.png&quot; rel=&quot;nofollow&quot; target=&quot;_NEW&quot;&gt;\nhttp://img29.imageshack.us/img29/4978/rapq.png&lt;/a&gt;\n &lt;a href=&quot;\nhttp://img845.imageshack.us/img845/5007/3dni.png&quot; rel=&quot;nofollow&quot; target=&quot;_NEW&quot;&gt;\nhttp://img845.imageshack.us/img845/5007/3dni.png&lt;/a&gt;\n &lt;a href=&quot;\nhttp://img856.imageshack.us/img856/6531/wv84.png&quot; rel=&quot;nofollow&quot; target=&quot;_NEW&quot;&gt;\nhttp://img856.imageshack.us/img856/6531/wv84.png&lt;/a&gt;\n &lt;a href=&quot;\nhttp://img687.imageshack.us/img687/6201/0ri6.png&quot; rel=&quot;nofollow&quot; target=&quot;_NEW&quot;&gt;\nhttp://img687.imageshack.us/img687/6201/0ri6.png&lt;/a&gt;\n &lt;a href=&quot;\nhttp://img560.imageshack.us/img560/3848/on3p.png&quot; rel=&quot;nofollow&quot; target=&quot;_NEW&quot;&gt;\nhttp://img560.imageshack.us/img560/3848/on3p.png&lt;/a&gt;\n","torrent":{"xt":"urn:btih:accae37e591fb6b87cb046c4b8d11fde1ba455cf","amp;dn":"Mission+Impossible+Ghost+Protocol+2011+720p+Bluray+DTS+x264+Silv","amp;tr":["udp%3A%2F%2Ftracker.openbittorrent.com%3A80","udp%3A%2F%2Fopen.demonii.com%3A1337","udp%3A%2F%2Ftracker.coppersurfer.tk%3A6969","udp%3A%2F%2Fexodus.desync.com%3A6969"],"infoHash":"accae37e591fb6b87cb046c4b8d11fde1ba455cf","infoHashBuffer":{"type":"Buffer","data":[172,202,227,126,89,31,182,184,124,176,70,196,184,209,31,222,27,164,85,207]},"announce":[],"urlList":[]}}